<svg xmlns="http://www.w3.org/2000/svg" xmlns:xlink="http://www.w3.org/1999/xlink"><symbol id="bg-post"><path fill="#F8F7F4" d="M560 205c0 8.25-6.75 15-15 15H15c-8.25 0-15-6.75-15-15V15C0 6.75 6.75 0 15 0h530c8.25 0 15 6.75 15 15v190z"/><path d="M545 0H20.729L0 20.729V205c0 8.25 6.75 15 15 15h530c8.25 0 15-6.75 15-15V15c0-8.25-6.75-15-15-15zM10.246.79A15.107 15.107 0 0 0 .79 10.246L10.246.79z" fill="#F8F7F4"/><path fill="#92CDFF" d="M20.741 0H15c-1.655 0-3.245.283-4.737.784L.784 10.263A14.848 14.848 0 0 0 0 15v5.741L20.741 0z"/><path fill="#FE9E90" d="M0 40.116L40.116 0h-9.693L0 30.423z"/><path fill="#92CDFF" d="M0 59.504L59.504 0h-9.693L0 49.811z"/><path fill="#FE9E90" d="M0 78.891L78.891 0h-9.694L0 69.197z"/><path fill="#92CDFF" d="M0 98.278L98.278 0h-9.694L0 88.584z"/><path fill="#FE9E90" d="M0 117.665L117.665 0h-9.694L0 107.971z"/><path fill="#92CDFF" d="M0 137.052L137.052 0h-9.694L0 127.358z"/><path fill="#FE9E90" d="M0 156.438L156.438 0h-9.693L0 146.745z"/><path fill="#92CDFF" d="M0 175.826L175.826 0h-9.693L0 166.134z"/><path fill="#FE9E90" d="M0 195.213L195.213 0h-9.693L0 185.521z"/><path fill="#92CDFF" d="M204.907 0L0 204.907V205c0 2.746.761 5.317 2.063 7.538L214.601 0h-9.694z"/><path fill="#FE9E90" d="M14.036 219.951L233.987 0h-9.694L6.775 217.519a14.889 14.889 0 0 0 7.261 2.432z"/><path fill="#92CDFF" d="M33.375 220l220-220h-9.695L23.681 220z"/><path fill="#FE9E90" d="M52.762 220l220-220h-9.695L43.068 220z"/><path fill="#92CDFF" d="M72.149 220L292.148 0h-9.694L62.455 220z"/><path fill="#FE9E90" d="M91.536 220L311.535 0h-9.693l-220 220z"/><path fill="#92CDFF" d="M110.923 220l220-220h-9.694l-220 220z"/><path fill="#FE9E90" d="M130.31 220l220-220h-9.695L120.616 220z"/><path fill="#92CDFF" d="M149.697 220L369.696 0h-9.693l-220 220z"/><path fill="#FE9E90" d="M169.084 220L389.083 0h-9.692L159.39 220z"/><path fill="#92CDFF" d="M188.471 220L408.472 0h-9.695l-220 220z"/><path fill="#FE9E90" d="M207.858 220L427.857 0h-9.693L198.165 220z"/><path fill="#92CDFF" d="M227.246 220L447.247 0h-9.695l-220 220z"/><path fill="#FE9E90" d="M246.632 220L466.633 0h-9.695l-220 220z"/><path fill="#92CDFF" d="M266.021 220l220-220h-9.696l-220 220z"/><path fill="#FE9E90" d="M285.406 220l220-220h-9.693l-220 220z"/><path fill="#92CDFF" d="M304.794 220l220-220H515.1l-220 220z"/><path fill="#FE9E90" d="M324.181 220l220-220h-9.695l-220 220z"/><path fill="#92CDFF" d="M343.568 220L557.22 6.349a15.177 15.177 0 0 0-5.137-4.557L333.874 220h9.694z"/><path fill="#FE9E90" d="M362.955 220L560 22.955V15c0-.555-.036-1.102-.096-1.642L353.262 220h9.693z"/><path fill="#92CDFF" d="M382.342 220L560 42.342v-9.694L372.648 220z"/><path fill="#FE9E90" d="M401.729 220L560 61.729v-9.692L392.036 220z"/><path fill="#92CDFF" d="M421.117 220L560 81.118v-9.696L411.423 220z"/><path fill="#FE9E90" d="M440.504 220L560 100.504v-9.695L430.81 220z"/><path fill="#92CDFF" d="M459.892 220L560 119.892v-9.696L450.196 220z"/><path fill="#FE9E90" d="M479.278 220L560 139.278v-9.695L469.583 220z"/><path fill="#92CDFF" d="M498.665 220L560 158.665v-9.693L488.972 220z"/><path fill="#FE9E90" d="M518.052 220L560 178.052v-9.695L508.357 220z"/><path fill="#92CDFF" d="M537.438 220L560 197.438v-9.692L527.746 220z"/><path fill="#FE9E90" d="M559.798 207.335l-12.463 12.463c6.386-1.011 11.452-6.077 12.463-12.463z"/></symbol><symbol id="icon-arrow"><path fill="#FFF" d="M7.237 5.642L1.729.133a.506.506 0 1 0-.716.716L6.163 6l-5.151 5.15a.507.507 0 0 0 .716.717l5.509-5.509a.504.504 0 0 0 0-.716z"/></symbol><symbol id="icon-basket"><path fill="currentColor" d="M5.888 4.031L6.922 13h10.45l1.176-8.969z"/><circle cx="6.984" cy="18" r="2"/><circle cx="15.984" cy="18" r="2"/><path d="M5.657 2.031L5.422 0H0v2h3.64l1.5 13h13.988l1.699-12.969H5.657zM17.372 13H6.922L5.888 4.031h12.66L17.372 13z"/></symbol><symbol id="icon-checkbox-off"><path fill="#FFF" d="M20 2c.542 0 1 .458 1 1v17c0 .542-.458 1-1 1H3c-.542 0-1-.458-1-1V3c0-.542.458-1 1-1h17m0-2H3C1.35 0 0 1.35 0 3v17c0 1.65 1.35 3 3 3h17c1.65 0 3-1.35 3-3V3c0-1.65-1.35-3-3-3z"/></symbol><symbol id="icon-checkbox-on"><path fill="#FFF" d="M7.285 7.486l-2.829 2.829 7.783 7.783L26.171 4.166l-2.828-2.829-11.104 11.102z"/><path fill="#FFF" d="M21 20c0 .542-.458 1-1 1H3c-.542 0-1-.458-1-1V3c0-.542.458-1 1-1h16.908L21.493.415A2.96 2.96 0 0 0 20 0H3C1.35 0 0 1.35 0 3v17c0 1.65 1.35 3 3 3h17c1.65 0 3-1.35 3-3v-9.829l-2 2V20z"/></symbol><symbol id="icon-cow"><g fill="#323232"><path d="M24.5 0C10.969 0 0 10.969 0 24.5S10.969 49 24.5 49 49 38.031 49 24.5 38.031 0 24.5 0zm0 47C12.093 47 2 36.906 2 24.5 2 12.093 12.093 2 24.5 2 36.906 2 47 12.093 47 24.5 47 36.906 36.906 47 24.5 47z"/><path d="M34.811 19.342c.86-1.711 1.88-4.987.433-9.482a1 1 0 0 0-1.825-.182c-1.271 2.268-4.038 5.927-6.047 6.094-.03.002-.054.019-.083.024A16.242 16.242 0 0 0 24.5 15.5c-.103 0-1.311.009-2.801.292-.025-.004-.045-.019-.071-.021-2.004-.167-4.773-3.827-6.048-6.095a1 1 0 1 0-1.824.183c-1.448 4.494-.427 7.771.433 9.482-1.744.22-3.954.777-4.757 2.188-.388.682-.38 1.464.024 2.201.514.939 1.399 1.245 2.334 1.245.816 0 1.668-.233 2.349-.482-.004.54.026 1.08.129 1.612.288 1.496 1.131 3.636 1.748 5.197.188.479.396 1.004.509 1.324-.235.614-.672 1.812-.766 2.484-.112.801.114 2.147 1.121 3.306 1.443 1.659 4.006 2.5 7.619 2.5 3.612 0 6.176-.841 7.619-2.5 1.007-1.158 1.233-2.505 1.121-3.306-.094-.673-.53-1.87-.767-2.484.114-.319.32-.843.509-1.32.617-1.563 1.462-3.704 1.75-5.201a8.483 8.483 0 0 0 .135-1.61c.679.248 1.528.48 2.342.48.936 0 1.82-.306 2.334-1.245.404-.737.412-1.519.024-2.201-.801-1.41-3.011-1.967-4.755-2.187zm-.953-6.634c.428 3.06-.477 5.157-1.031 6.112a9.905 9.905 0 0 0-.798-.872c-.544-.526-1.199-.934-1.891-1.258 1.483-1.051 2.801-2.673 3.72-3.982zm-18.716.002c.916 1.304 2.229 2.919 3.706 3.97-.701.329-1.359.744-1.892 1.283-.276.279-.533.57-.771.872-.549-.943-1.468-3.054-1.043-6.125zM11.21 22.77c-.089-.163-.063-.21-.04-.25.223-.391 1.387-1.006 3.609-1.233-.116.29-.217.582-.302.878-1.265.673-2.998 1.091-3.267.605zm21.558 2.959c-.252 1.313-1.058 3.354-1.646 4.844-.398 1.01-.609 1.552-.683 1.877l-.066.302.114.287c.283.71.711 1.908.772 2.351.001.009.096.858-.649 1.716-.72.826-2.363 1.812-6.11 1.812-3.747 0-5.391-.986-6.11-1.812-.746-.857-.651-1.707-.65-1.716.062-.441.489-1.641.772-2.352l.114-.286-.066-.302c-.072-.326-.284-.869-.683-1.881-.587-1.489-1.392-3.528-1.645-4.841-.422-2.198.379-4.575 2.145-6.358 1.513-1.528 4.933-1.868 6.123-1.871 1.166 0 4.539.339 6.139 1.886 2.081 2.014 2.465 4.597 2.129 6.344zm5.021-2.959c-.263.479-1.974.07-3.238-.592a9.437 9.437 0 0 0-.297-.888c2.198.23 3.354.84 3.575 1.229.024.041.05.087-.04.251z"/></g></symbol><symbol id="icon-cross"><path fill="#231F20" d="M17.454 1.46L16.04.046 9 7.086 1.96.046.546 1.46l7.04 7.04-7.04 7.04 1.414 1.414L9 9.914l7.04 7.04 1.414-1.414-7.04-7.04z"/></symbol><symbol id="icon-eco"><g fill="#323232"><path d="M24.5 0C10.969 0 0 10.969 0 24.5S10.969 49 24.5 49 49 38.031 49 24.5 38.031 0 24.5 0zm0 47C12.093 47 2 36.906 2 24.5 2 12.093 12.093 2 24.5 2 36.906 2 47 12.093 47 24.5 47 36.906 36.906 47 24.5 47z"/><path d="M34.807 26.756c-.45-9.493-9.197-18.693-9.586-19.097-.015-.015-.033-.023-.048-.037a.942.942 0 0 0-.118-.09.945.945 0 0 0-.13-.077c-.018-.009-.032-.022-.051-.03-.027-.011-.056-.011-.083-.02a.898.898 0 0 0-.297-.044c-.045 0-.089.002-.134.008a.957.957 0 0 0-.158.038c-.025.008-.052.008-.076.018-.018.007-.031.021-.049.029a.896.896 0 0 0-.133.079.95.95 0 0 0-.118.091c-.015.013-.033.021-.046.036-.389.404-9.14 9.608-9.587 19.105-.008.067-.017.133-.011.202-.013.363-.017.727-.003 1.091.369 10.256 9.978 12.82 10.075 12.845a.995.995 0 0 0 .494 0c.097-.024 9.706-2.589 10.074-12.845.013-.363.009-.727-.003-1.089.006-.073-.004-.142-.012-.213zM16.783 23.25c2.219 2.058 5.368 3.521 6.717 4.091v4.552c-2.448-1.196-6.219-3.341-7.302-5.228a17.06 17.06 0 0 1 .585-3.415zm2.024-5.096c1.513 1.688 3.602 2.646 4.693 3.059v3.94c-1.654-.76-4.424-2.216-6.016-4.043a29.164 29.164 0 0 1 1.323-2.956zm12.711 2.954c-1.59 1.824-4.362 3.283-6.018 4.044v-3.939c1.092-.413 3.183-1.372 4.695-3.062.489.949.935 1.94 1.323 2.957zM25.5 19.047v-8.008a45.239 45.239 0 0 1 3.651 5.229c-.953 1.374-2.536 2.276-3.651 2.779zm0 12.846v-4.552c1.35-.569 4.499-2.034 6.719-4.092.305 1.128.515 2.273.584 3.417-1.083 1.883-4.855 4.029-7.303 5.227zm-2-12.843c-1.113-.5-2.694-1.399-3.649-2.779a45.379 45.379 0 0 1 3.649-5.229v8.008zm-7.117 10.775c2.328 1.983 5.69 3.629 7.117 4.281v4.403c-2.092-.904-6.162-3.331-7.117-8.684zm9.117 8.696v-4.415c1.428-.653 4.792-2.3 7.121-4.284-.95 5.411-5.02 7.813-7.121 8.699z"/></g></symbol><symbol id="icon-entrance"><path d="M6 14.875L12.917 9.5 6 4.125v2.917H-.042v4.917H6z"/><path d="M18 0H5C3.9 0 3 .9 3 2v2h2V2h13v15H5v-2H3v2c0 1.1.9 2 2 2h13c1.1 0 2-.9 2-2V2c0-1.1-.9-2-2-2z"/></symbol><symbol id="icon-filter"><path opacity=".3" fill="#ABABAB" d="M10 20C4.477 20 0 15.522 0 10v2c0 5.522 4.477 10 10 10 5.522 0 10-4.478 10-10v-2c0 5.522-4.478 10-10 10z"/><circle fill="#FFF" cx="10" cy="10" r="10"/><circle fill="#ABABAB" cx="10" cy="10" r="2"/></symbol><symbol id="icon-heart"><path fill="#FFF" d="M10.799 0c-1.35 0-2.551.65-3.3 1.661A4.097 4.097 0 0 0 4.199 0C1.875 0 0 1.806 0 4.044 0 7.223 7.499 13 7.499 13s7.499-5.777 7.499-8.956C14.998 1.806 13.123 0 10.799 0z"/></symbol><symbol id="icon-hit"><circle cx="30.5" cy="30.5" r="30.5" fill="#FFF"/><path fill="#231F20" d="M19.985 18.27c-.915 2.683-1.718 5.384-2.472 8.094-.543-2.863-.921-5.756-.958-8.715-.005-.431-1.939-.11-1.932.518.052 4.243.8 8.354 1.747 12.432-1.196 4.58-2.311 9.18-3.579 13.771-.109.394 1.771.138 1.904-.344.902-3.265 1.726-6.535 2.556-9.8.805 3.204 1.644 6.407 2.273 9.657.098.508 2.041.045 1.932-.518-.864-4.462-2.12-8.836-3.146-13.247 1.068-4.086 2.202-8.157 3.578-12.191.124-.361-1.737-.145-1.903.343zm14.41.528c.049-1.047-1.919-.794-1.963.128-.004.08-.004.159-.008.238-.039.065-.084.128-.101.204-1.004 4.463-2.611 8.729-4.056 13.06-.644 1.93-1.139 3.898-1.666 5.856-.139-6.623-.135-13.237-.165-19.871-.005-1.042-1.965-.769-1.961.134.037 8.337.018 16.641.303 24.971a.644.644 0 0 0-.034.301l.064.445c.123.856 1.959.48 1.944-.317.005-.011.016-.018.021-.029 1.636-4.171 2.478-8.591 3.894-12.838.521-1.558 1.048-3.108 1.561-4.662-.071 5.987.058 11.969.211 17.961.026 1.012 1.58.771 1.91.065l.056-.119c.112-.239.088-.423-.015-.558-.211-8.333-.389-16.635.005-24.969zM47.32 17.66c-3.158.38-6.312.227-9.478.048-.491-.028-2.24.851-1.221.908 1.093.062 2.182.109 3.271.145-.093.081-.161.167-.157.265.295 8.408-1.054 17.239.191 25.564.063.424 2.01.005 1.932-.518-1.229-8.229.069-16.951-.185-25.27 1.776.012 3.551-.052 5.33-.266.857-.102 1.669-1.039.317-.876z"/></symbol><symbol id="icon-ice-cream"><g fill="#323232"><path d="M24.5 0C10.969 0 0 10.969 0 24.5S10.969 49 24.5 49 49 38.031 49 24.5 38.031 0 24.5 0zm0 47C12.093 47 2 36.906 2 24.5 2 12.093 12.093 2 24.5 2 36.906 2 47 12.093 47 24.5 47 36.906 36.906 47 24.5 47z"/><path d="M24.5 7.625c-4.355 0-7.94 3.278-8.436 7.5H16v16.917h17V15.125h-.063c-.497-4.222-4.082-7.5-8.437-7.5zM31 30.042H18v-9.257c.275.337.705.631 1.542.631 1.292 0 2.125-.713 2.125-1.625v-.875a.854.854 0 1 1 1.708 0c0 .009-.005.017-.005.025 0 .007.005.01.005.017v3.292s-.031 1.833 2.125 1.833c2.109 0 2.125-1.75 2.125-1.75v-2.25h.001l-.001-.005a1.344 1.344 0 0 1 2.688 0c0 .031.021.088.021.088s.034.609.667.894v8.982zm-8 10.083a1.5 1.5 0 1 0 3 0V33h-3v7.125z"/></g></symbol><symbol id="icon-loupe"><path d="M16.958 15.527L11.75 10.32A6.455 6.455 0 0 0 13 6.5 6.5 6.5 0 1 0 6.5 13a6.465 6.465 0 0 0 3.839-1.263l5.205 5.204 1.414-1.414zM6.5 11C4.019 11 2 8.981 2 6.5S4.019 2 6.5 2 11 4.019 11 6.5 8.981 11 6.5 11z"/></symbol><symbol id="icon-pin"><path fill="#E84D37" d="M40 7.101c15.622 0 28.285 12.664 28.285 28.286 0 5.112-1.362 9.902-3.734 14.041 4.503.643 7.971 4.506 7.971 9.188a9.292 9.292 0 0 1-9.293 9.293c-4.682 0-8.545-3.467-9.188-7.971-.353.201-.709.396-1.07.583-1.012 6.26-6.426 11.045-12.971 11.045-6.546 0-11.96-4.786-12.972-11.046a29.753 29.753 0 0 1-1.069-.582c-.644 4.504-4.505 7.971-9.188 7.971-5.132 0-9.292-4.161-9.292-9.293 0-4.682 3.466-8.544 7.97-9.188a28.146 28.146 0 0 1-3.735-14.041C11.714 19.765 24.378 7.101 40 7.101m0-7C20.543.101 4.714 15.93 4.714 35.387c0 3.646.568 7.263 1.668 10.713C2.763 49.116.479 53.652.479 58.615c0 8.984 7.309 16.294 16.292 16.294 3.157 0 6.141-.925 8.672-2.529 3.681 3.846 8.86 6.187 14.557 6.187s10.875-2.341 14.556-6.187a16.181 16.181 0 0 0 8.673 2.529c8.984 0 16.293-7.31 16.293-16.294 0-4.962-2.284-9.499-5.903-12.516a35.317 35.317 0 0 0 1.667-10.713C75.285 15.93 59.456.101 40 .101z"/><path fill="#E84D37" d="M63.229 78.908c-2.835 0-5.56-.598-8.04-1.681-.371.3-.761.574-1.149.851l.525.525-3.898 3.898-1.673-1.673c-.687.273-1.386.517-2.101.728l2.359 2.359-3.898 3.898-3.898-3.898 1.556-1.556c-.989.122-1.989.206-3.011.206-.988 0-1.958-.079-2.917-.194l1.543 1.544-3.898 3.898-3.898-3.898 2.339-2.34a23.605 23.605 0 0 1-2.104-.724L29.417 82.5l-3.898-3.898.49-.489c-.405-.288-.811-.575-1.197-.887a20.059 20.059 0 0 1-8.039 1.681c-.204 0-.401-.024-.603-.03a3.467 3.467 0 0 0 .16 1.622l20.375 57.125c.024.068.059.128.087.193.03.07.058.139.092.206.07.14.15.271.237.397.029.042.054.087.084.129.125.166.262.32.412.459.032.03.069.055.103.084.125.107.254.205.392.294.058.037.118.07.179.104.138.077.279.145.426.202.038.015.07.038.108.052.02.007.04.009.059.016.127.043.258.074.391.103.055.012.109.029.164.038.185.03.373.048.562.048s.377-.018.562-.048c.057-.009.113-.027.17-.04.13-.027.259-.058.384-.101.021-.007.041-.009.061-.016.04-.014.072-.037.111-.053.145-.058.285-.124.421-.2a3.34 3.34 0 0 0 .183-.106c.136-.088.265-.186.388-.291.034-.03.072-.056.105-.086.15-.14.287-.294.412-.46.03-.04.054-.084.082-.125.088-.128.169-.261.24-.401.033-.066.062-.134.09-.201.028-.066.064-.128.089-.197L63.672 80.5a3.467 3.467 0 0 0 .16-1.622c-.202.006-.399.03-.603.03zM49.252 94.541l-3.898 3.898-3.898-3.898 3.898-3.898 3.898 3.898zm-13.109 5.313l3.898-3.898 3.898 3.898-3.898 3.898-3.898-3.898zm7.796 10.625l-3.898 3.898-3.898-3.898 3.898-3.898 3.898 3.898zM40.041 85.33l3.898 3.898-3.898 3.898-3.898-3.898 3.898-3.898zm-1.414 9.211l-3.898 3.898-3.898-3.898 3.898-3.898 3.898 3.898zM23.724 80.397l.38-.38 3.898 3.898-2.229 2.229-2.049-5.747zm2.793 7.832l2.899-2.899 3.898 3.898-3.898 3.898-1.791-1.791-1.108-3.106zm2.794 7.832l.105-.105 3.898 3.898-1.954 1.954-2.049-5.747zm4.205 11.792l-1.413-3.96 2.625-2.625 3.898 3.898-3.898 3.898-1.212-1.211zm3.431 9.618l-1.863-5.223 3.543 3.543-1.68 1.68zm3.053 8.56l-2.31-6.476 2.351-2.351 2.29 2.29L40 126.031zm3.074-8.621l-1.619-1.619 3.415-3.415-1.796 5.034zm3.364-9.431l-1.085 1.085-3.898-3.898 3.898-3.898 2.564 2.564-1.479 4.147zm2.223-6.232l-1.894-1.894 3.898-3.898.046.045-2.05 5.747zm3.668-10.283l-1.663 1.663-3.898-3.898 3.898-3.898 2.838 2.838-1.175 3.295zm1.919-5.38l-2.168-2.168 3.898-3.898.319.319-2.049 5.747z"/></symbol><symbol id="icon-radio-off"><path fill="#FFF" d="M12.5 4c4.687 0 8.5 3.813 8.5 8.5 0 4.687-3.813 8.5-8.5 8.5C7.813 21 4 17.187 4 12.5 4 7.813 7.813 4 12.5 4m0-4C5.597 0 0 5.597 0 12.5S5.597 25 12.5 25 25 19.403 25 12.5 19.403 0 12.5 0z"/></symbol><symbol id="icon-radio-on"><path fill="#FFF" d="M12.5 4c4.687 0 8.5 3.813 8.5 8.5 0 4.687-3.813 8.5-8.5 8.5C7.813 21 4 17.187 4 12.5 4 7.813 7.813 4 12.5 4m0-4C5.597 0 0 5.597 0 12.5S5.597 25 12.5 25 25 19.403 25 12.5 19.403 0 12.5 0z"/><circle cx="12.5" cy="12.5" r="4.5" fill="#FFF"/></symbol><symbol id="icon-ruble"><path fill="#FFF" d="M11 21h7.451c5.247 0 9.5-4.253 9.5-9.5S23.698 2 18.451 2H6v14H2v5h4v3H2v5h4v4h5v-4h15v-5H11v-3zm0-14h7.451v-.03a4.53 4.53 0 0 1 0 9.06V16H11V7z"/></symbol><symbol id="icon-select-arrow"><path fill="#FFF" d="M4.5 5L0 0h9z"/></symbol><symbol id="icon-thermometer"><g fill="#323232"><path d="M24.5 0C10.969 0 0 10.969 0 24.5S10.969 49 24.5 49 49 38.031 49 24.5 38.031 0 24.5 0zm0 47C12.093 47 2 36.906 2 24.5 2 12.093 12.093 2 24.5 2 36.906 2 47 12.093 47 24.5 47 36.906 36.906 47 24.5 47z"/><path d="M28.938 13.125c0-2.774-2.257-5.031-5.031-5.031s-5.031 2.257-5.031 5.031v14.64a7.042 7.042 0 0 0-2 4.923c0 3.929 3.196 7.125 7.125 7.125s7.125-3.196 7.125-7.125a7.127 7.127 0 0 0-2.188-5.126V13.125zm.187 19.563a5.126 5.126 0 0 1-10.25 0c0-1.647.792-3.098 2-4.035V13.125a3.031 3.031 0 1 1 6.062 0v15.372a5.114 5.114 0 0 1 2.188 4.191z"/><path d="M25 29.559V13.188a1 1 0 1 0-2 0v16.371a2.99 2.99 0 0 0-2 2.816 3 3 0 1 0 6 0 2.99 2.99 0 0 0-2-2.816zM31 12h6v2h-6zm0 4h6v2h-6zm0 4h6v2h-6zm0 4h6v2h-6z"/></g></symbol><symbol id="logo-fb"><path fill="#FFF" d="M16 0C7.164 0 0 7.163 0 16s7.164 16 16 16c8.837 0 16-7.164 16-16S24.837 0 16 0zm4.062 9.455h-3.021v3.444h3.021v3.445h-3.021v8.61H14.02v-8.61H11v-3.445h3.021V9.455c0-1.902 1.353-3.445 3.021-3.445h3.021v3.445z"/></symbol><symbol id="logo-htmlacademy"><path d="M44.61 26.86a2 2 0 0 0 .55-.1v1.33a3.25 3.25 0 0 1-1.18.21 1.67 1.67 0 0 1-1.67-1 4.84 4.84 0 0 1-3.14 1.08c-1.51 0-2.91-.83-2.91-2.55 0-2.13 2-2.79 3.71-2.79a11.08 11.08 0 0 1 2.17.25v-.3c0-1-.76-1.77-2.19-1.77a7.42 7.42 0 0 0-3 .64v-1.7a10.21 10.21 0 0 1 3.19-.55c2.36 0 3.81 1.12 3.81 3.65v3a.54.54 0 0 0 .49.59h.17zm-6.44-1.13a1.35 1.35 0 0 0 1.46 1.25h.11a3.39 3.39 0 0 0 2.41-1v-1.42a9.72 9.72 0 0 0-1.81-.21c-1 0-2.16.33-2.16 1.38zm12.36-6.11a5 5 0 0 1 2.57.64v1.72a4.08 4.08 0 0 0-2.3-.7 2.75 2.75 0 1 0 0 5.49 5 5 0 0 0 2.43-.64v1.71a6.27 6.27 0 0 1-2.76.57A4.21 4.21 0 0 1 46 24.49v-.41a4.32 4.32 0 0 1 4.18-4.46h.38zm12.17 7.24a2 2 0 0 0 .55-.1v1.33a3.25 3.25 0 0 1-1.18.21 1.67 1.67 0 0 1-1.67-1 4.84 4.84 0 0 1-3.14 1.08c-1.51 0-2.91-.83-2.91-2.55 0-2.13 2-2.79 3.71-2.79a11.08 11.08 0 0 1 2.17.25v-.3c0-1-.76-1.77-2.19-1.77a7.42 7.42 0 0 0-3 .64v-1.7a10.21 10.21 0 0 1 3.19-.55c2.36 0 3.81 1.12 3.81 3.65v3a.54.54 0 0 0 .49.59h.17zm-6.44-1.13a1.35 1.35 0 0 0 1.47 1.25h.11a3.39 3.39 0 0 0 2.41-1v-1.42a9.72 9.72 0 0 0-1.81-.21c-1.06 0-2.16.33-2.16 1.38zM73 15.98v12.2h-1.65v-1.32a3.88 3.88 0 0 1-3.19 1.54 4.4 4.4 0 0 1 0-8.78 3.81 3.81 0 0 1 3 1.3v-4.94H73zm-4.53 5.22a2.76 2.76 0 1 0 0 5.52 2.86 2.86 0 0 0 2.68-1.74v-2a2.91 2.91 0 0 0-2.66-1.73zM79 19.62c3.31 0 4.46 2.68 3.92 5.09H76.7c.21 1.5 1.67 2.11 3.19 2.11a6.11 6.11 0 0 0 2.64-.59v1.6a7.14 7.14 0 0 1-3 .57c-2.53 0-4.75-1.42-4.75-4.42a4.18 4.18 0 0 1 4-4.39H79zm.09 1.54a2.28 2.28 0 0 0-2.44 2.1v.06h4.65a2 2 0 0 0-2.17-2.16zm5.73 7v-8.31h1.65v1a3.81 3.81 0 0 1 2.78-1.27 2.86 2.86 0 0 1 2.64 1.4 4.12 4.12 0 0 1 2.91-1.33 3.06 3.06 0 0 1 3.2 3.33v5.2h-1.9v-5.15a1.59 1.59 0 0 0-1.42-1.75h-.26a2.8 2.8 0 0 0-2.07 1.12v5.78h-1.9v-5.15A1.59 1.59 0 0 0 89 21.29h-.2a3 3 0 0 0-2.21 1.29v5.63h-1.73zm21.31-8.33h1.9l-3.91 9.46c-.9 2.17-2.09 2.86-3.35 2.86a4.76 4.76 0 0 1-1.1-.14v-1.57a2.86 2.86 0 0 0 .85.12c.9 0 1.58-.64 2.07-1.9l.17-.42-4-8.4h2l2.86 6.29zM38.73 1.44V6.2a3.81 3.81 0 0 1 2.7-1.14 3.25 3.25 0 0 1 3.44 3.4v5.15H43V8.7a1.81 1.81 0 0 0-1.61-2h-.3a2.93 2.93 0 0 0-2.32 1.39v5.52h-1.9V1.44h1.9zm11.21.85v3h3v1.6h-3v3.81c0 1.1.5 1.46 1.58 1.46a4.49 4.49 0 0 0 1.69-.33v1.6a6.8 6.8 0 0 1-2.21.35 2.55 2.55 0 0 1-2.86-2.74V6.87h-1.56V5.24h1.5V2.72zm5.4 11.31V5.26H57v1a3.81 3.81 0 0 1 2.77-1.28 2.86 2.86 0 0 1 2.6 1.33 4.12 4.12 0 0 1 2.91-1.33 3.06 3.06 0 0 1 3.16 3.4v5.21h-1.9V8.44a1.59 1.59 0 0 0-1.42-1.75h-.23a2.8 2.8 0 0 0-2.07 1.12v5.78h-1.9V8.44a1.59 1.59 0 0 0-1.42-1.75h-.23a3 3 0 0 0-2.21 1.29v5.63h-1.72zM71.17 1.43H73v12.15h-1.83V1.43zM14.71-.02h-.16L0 1.52v26.67l14.55 8.66 14.55-8.66V1.52zm12.5 27.1l-12.66 7.54L1.9 27.1V16.16l12.59 7.5v1.32l-8.63-5.1v1.31l8.68 5.21v1.39l-8.67-5.16v1.35l8.68 5.21 8.75-5.24v-5.66l3.9-2.31V27.1zm0-12.53l-3.48 2-1.6 1-7.62-4.57v1.31L21 18.21l-.14.09-1 .54-5.37-3.2v1.34l4.24 2.52-1 .67-3.2-1.9v1.31l2.1 1.24-2.13 1.26L2 14.63l12.51-7.54zm0-1.32L14.49 5.74 1.91 13.23v-10L14.56 1.9l12.65 1.33v10z"/></symbol><symbol id="logo-instagram"><g fill="#FFF"><path d="M20.916 16a4.938 4.938 0 1 1-9.877 0c0-.394.051-.773.138-1.14h-.897v6.838h11.396V14.86h-.897c.086.367.137.746.137 1.14z"/><path d="M15.978 18.659c1.466 0 2.659-1.193 2.659-2.659s-1.193-2.659-2.659-2.659c-1.466 0-2.659 1.193-2.659 2.659s1.192 2.659 2.659 2.659zm2.659-8.357h3.039v3.039h-3.039z"/><path d="M16 0C7.164 0 0 7.164 0 16c0 8.837 7.164 16 16 16 8.837 0 16-7.163 16-16 0-8.836-7.163-16-16-16zm7.955 21.698a2.285 2.285 0 0 1-2.279 2.279H10.279A2.285 2.285 0 0 1 8 21.698V10.302a2.286 2.286 0 0 1 2.279-2.279h11.396a2.286 2.286 0 0 1 2.279 2.279v11.396z"/></g></symbol><symbol id="logo-twitter"><path fill="#FFF" d="M16 0C7.164 0 0 7.164 0 16c0 8.837 7.164 16 16 16 8.837 0 16-7.163 16-16 0-8.836-7.163-16-16-16zm7.944 12.809c-.251 6.516-3.463 10.832-10.992 10.702h-.486c-.447 0-4.543-.443-5.344-1.823 2.479.19 4.247-.406 5.12-1.136-1.048-.289-2.923-.461-3.251-2.848.384.104.618.221 1.299.113-1.307-.824-2.758-1.519-2.679-3.643.311.317 1.164.518 1.46.457-.768-.233-2.149-3.244-.974-4.781 1.984 1.79 4.075 3.482 7.804 3.643.227-2.214 1.24-3.699 3.168-4.325 1.84-.479 3.255.26 3.901 1.138.737-.224 1.453-.466 2.193-.685-.004.833-.569 1.463-.935 1.709.747.165 1.423-.475 1.423-.475-.184.963-1.094 1.725-1.707 1.954z"/></symbol><symbol id="logo-vk"><g fill="#FFF"><path d="M16.637 14.495c.402-.019.719-.082.951-.188.326-.145.54-.33.641-.559.101-.229.15-.496.15-.797 0-.232-.058-.465-.174-.697-.116-.232-.322-.405-.617-.517-.264-.1-.592-.155-.984-.165a76.242 76.242 0 0 0-1.652-.014h-.339v2.965h.565c.571 0 1.057-.009 1.459-.028zm1.481 2.589c-.282-.081-.672-.125-1.166-.132a127.97 127.97 0 0 0-1.55-.009h-.79v3.493h.264c1.014 0 1.74-.003 2.18-.009a3.2 3.2 0 0 0 1.212-.245c.377-.157.633-.364.774-.625s.214-.562.214-.9c0-.446-.088-.788-.261-1.03-.17-.241-.464-.423-.877-.543z"/><path d="M16 0C7.164 0 0 7.164 0 16c0 8.837 7.164 16 16 16 8.837 0 16-7.163 16-16 0-8.836-7.163-16-16-16zm6.602 20.531a3.73 3.73 0 0 1-1.124 1.327c-.552.415-1.161.71-1.823.886s-1.501.264-2.519.264h-6.121V8.987h5.443c1.13 0 1.957.038 2.48.113a5.126 5.126 0 0 1 1.561.5c.533.27.929.632 1.189 1.087.26.455.392.975.392 1.558 0 .678-.179 1.278-.536 1.795-.358.518-.863.92-1.517 1.208v.075c.917.182 1.642.559 2.179 1.13.537.571.807 1.325.807 2.261 0 .678-.138 1.283-.411 1.817z"/></g></symbol><symbol id="logo"><path d="M59.292 42.755c-.833-.25-2.153.373-2.153.373s-3.027 2.513-17.84-.378c-10.908-2.129-16.583-1.917-16.583-1.917s1.833-12.5 1.333-16c0 0 0-.917-1.083-.917s-1.75.417-1.75 1 .167 4.417-.25 7.083c0 0-1.417 4.251-6.167 3.917s-5.75-3.75-6.167-6.083-.666-8.833.584-11.5c0 0 7.167.25 11.667-3.583s4.25-7.167 2.083-8.583S15.883 5 12.049 8.5s-5.083 7-5.083 7-5.625-1.208-4.333-7.083C3.982 2.277 12.393 3 12.393 3c1.75.333 1.823.5 2.406-.083s1-2.083-1.75-2.167S2.049 2.021.466 7.5c-1.685 5.828 1.435 9.997 5.622 10.643 0 0-2.288 10.107.545 15.107s6.94 4.917 8.595 4.917 4.572-.916 5.405-2.25c0 0-.393 3.581-.724 4.88 0 0-6.935-.095-9.109 1.036-3.688 1.917-2.917 6.48-1.5 8.104 1.204 1.38 4.812 2.125 7.417.896 2.705-1.277 4.865-3.739 5.549-7.697 0 0 6.368-.469 12.534 1.364s14.756 3.556 17.34 3.556 8.046-.738 8.327-2.889c.186-1.438-.342-2.162-1.175-2.412zM15.862 9.328s3.281-2.5 4.844-.938c0 0 1.25 1.281.094 2.812-.656.869-2.396 3.589-10.656 4.938-.001.001 2.593-4.562 5.718-6.812zm.265 38.906s-4.531 2.469-5.047-.875c-.333-2.158.89-3.18 1.687-3.57s1.875-.879 6.579-.711c0 0 0 3.328-3.219 5.156z"/><path d="M73.576 24.477l-.002 6.77c-.007.038-.019.075-.021.115-.035.931-.418 1.734-.861 2.537a5.56 5.56 0 0 1-1.18 1.463c-.533.469-.877-.564-1.078-.985-1.391-2.915-.726-6.812-.187-9.862.257-1.454-2.706-1.077-2.936.222-.334 1.888-.869 5.118-.547 7.906-.587.101-1.167.366-1.341.737-.511 1.088-2.009 4.704-3.833 3.258-1.319-1.046-1.461-3.743-1.6-5.268-.191-2.111.154-4.267.816-6.266-.058.173 1.14-2.823 1.67-1.703.326.69.032 2.641-.608 3.122-1.571 1.182.875 1.67 1.824.956 1.802-1.356 3.05-5.708-.074-6.232-3.464-.581-5.438 2.923-6.163 5.697-.335 1.279-.563 3.074-.504 4.886-.481.832-2.097 3.533-3.047 4.026-1.125.584-1.104-.229-1.062-.75s.542-5.146.813-8.271c.175-2.014-.062-2.771-.5-3.646s-3.994-2.825-7.146.833c-2.183 2.534-2.912 4.927-3.08 7.054-.213.425-.443.873-.71 1.362-1.5 2.75-3.384 3.909-4.062 2-.594-1.672-.906-3.703-.75-6.188.005-.088 3.5-5 5.062-11.75s1.25-10.062.438-10.625-4.25-1.938-6.312 6.25c-1.523 6.047-2.137 12.5-1.565 17.879a41.603 41.603 0 0 1-1.229 2.434c-1.5 2.75-3.384 3.909-4.062 2-.594-1.672-.906-3.703-.75-6.188.005-.088 3.5-5 5.062-11.75s1.25-10.062.438-10.625-4.25-1.938-6.312 6.25-2.465 17.126-.5 23.125c0 0 1.081 3.375 3.103 3.125 1.671-.207 3.656-1.846 4.829-4.906.144.615.301 1.215.487 1.781 0 0 1.081 3.375 3.103 3.125 1.376-.17 2.964-1.32 4.14-3.423.711 1.839 2.239 3.34 4.213 2.985 2.667-.479 3.218-1.932 3.218-1.932s-.051 2.383 1.657 2.383c1.525 0 2.729-.889 3.938-3.159.409-.77.642-1.218.773-1.481.356 2.144 1.241 4.055 3.018 4.83 2.976 1.298 5.62-1.172 7.167-3.608.473 1.199 1.24 2.156 2.461 2.616 1.338.505 2.659.013 3.772-.928-.005 1.173-.016 2.346-.026 3.519-.584.001-1.239.143-1.547.415-3.203 2.825-4.598 6.241-4.195 10.521.233 2.48 2.576 3.597 4.725 2.662 3.101-1.35 3.57-6.021 3.83-8.836.625-6.829.139-13.939.139-20.791 0-1.293-2.906-.702-2.906.329zM30.252 13.281c.688-2.656 1.329-3.719 1.954-3.719s.938.719.469 3-1.987 8.626-4.094 12.75c0 0 .983-9.374 1.671-12.031zm8.418 0c.688-2.656 1.329-3.719 1.954-3.719s.938.719.469 3-1.987 8.626-4.094 12.75c0 0 .984-9.374 1.671-12.031zm12.859 12.427c-.074.58-.459 4.292-.959 6.292s-.953 2.78-2.583 3.438c-1.704.688-2.438-1.418-2.438-1.418-1.146-3.208.396-6.042 1.667-7.919s2.573-2.096 3.312-1.955a1.36 1.36 0 0 1 1.001 1.562zm21.972 18.056c-.038 2.683-.381 5.377-1.579 7.81-.701.146-1.029-.117-1.239-1.237a10.734 10.734 0 0 1 .049-3.251c.24-2.021 1.382-3.736 2.783-5.153-.007.61-.005 1.22-.014 1.831zm18.8-22.115c-2.541-1.229-4.811-3.29-5.715-6-1.279-3.827 2.928-6.647 6.275-6.474 3.488.181 5.137 3.625 4.967 6.709-.061 1.095-.748 3.557-2.096 2.277-.951-.906-1.369-2.375-1.566-3.632-.191-1.21-3.1-.495-2.898.776.578 3.657 4.527 7.689 7.898 3.863 3.014-3.418 1.656-9.462-2.574-11.233-4.523-1.893-10.135.077-12.529 4.327-2.732 4.85 2.748 9.598 6.629 11.321 6.225 3.338 6.455 14.054-1.818 14.126-3.43.03-6.619-2.438-7.693-5.609-.572-1.688-.279-7.553 2.014-8.003 1.807-.354 1.311-2.04-.453-1.693-3.713.727-5.08 5.515-4.721 8.858.576 5.341 5.578 8.339 10.631 8.295 4.682-.041 8.654-2.929 9.625-7.549.938-4.482-1.912-8.768-5.976-10.359z"/><path d="M110.881 37.532c-2.855-1.552-1.223-7.563-.791-9.875.279-1.492 1.555-3.794-.494-4.296-2.385-.584-5.223 1.687-7.277 3.858.012-2.506.17-4.999.553-7.478 3.088-1.576 5.4-3.821 7.182-7.395 1.295-2.604 1.941-7.971-2.461-6.422-3.986 1.403-5.377 6.017-6.619 9.688a29.258 29.258 0 0 0-1.094 4.378c-.398.16-.803.312-1.219.44-1.658.512-1.441 1.407.238.89.275-.085.543-.173.809-.263-.793 5.612-.256 11.49.248 17.02.049.54 2.969-.001 2.898-.777-.227-2.468-.414-4.922-.496-7.364.283-.104.52-.236.633-.387.889-1.175 1.982-2.203 3.08-3.177.299-.261.605-.513.92-.755l.459-.339c.674-.53.799-.543.381-.04-.061.916-.459 1.93-.625 2.832-.549 2.992-2.127 8.889 1.346 10.775.745.403 3.43-.715 2.329-1.313zm-6.486-24.101c.305-.897.715-1.77 1.094-2.636.473-1.082 1.73-4.768 2.645-3.004.729 1.404-.426 3.717-.938 5.067-.83 2.185-2.254 3.95-4.047 5.297.31-1.58.714-3.155 1.246-4.724z"/><path d="M121.635 30.527c.006-3.288-.375-7.506-4.303-7.863-4.309-.392-6.006 4.123-6.064 7.49-.004.274.135.456.35.569-.004 3.15.76 7.26 4.508 7.197 4.181-.068 5.505-3.714 5.509-7.393zm-4.998 5.475c-2.441-.971-2.219-5.203-2.053-7.24a.542.542 0 0 0-.246-.525c.301-2.017 1.082-5.03 2.863-3.506 1.416 1.211 1.445 4.148 1.521 5.835.053 1.144-.105 6.224-2.085 5.436zm36.498 12.578c-1.127-2.886-3.588-3.994-6.293-4.128a12.032 12.032 0 0 0-1.133-2.076c-3.91-5.788-13.189-5.019-19.475-1.948-.041-.913-.09-1.824-.129-2.73 2.533.127 5-.852 6.502-2.997 1.676-2.395 1.434-6.632.777-9.314-.619-2.525-3.088-2.072-4.93-1.234-.656.298-1.279.744-1.865 1.261.055-.672.111-1.345.16-2.014.111-1.542-2.842-1.153-2.941.203-.453 6.196-.297 12.366-.441 18.54-4.271 3.862-5.348 7.501-5.391 12.06-.02 2.271 1.934 3.961 3.982 2.386 2.895-2.224 3.771-6.629 4.172-9.984.178-1.491.197-3.009.16-4.528 4.49-2.941 10.635-3.149 15.205-.1.938.626 1.711 1.594 2.262 2.696-1.688.3-3.311.855-4.613 1.482-1.713.825-4.256 2.765-4.131 4.936.098 1.69 1.029 2.638 2.283 2.979.078.033.17.063.299.084 6.135.995 10.703-2.626 9.828-7.737 2.984 1.625 4.107 5.405 3.043 8.66-2.387 7.304-11.584 8.932-16.949 4.054-.574-.523-3.184.577-2.729.992 7.786 7.076 27.058.53 22.347-11.543zm-29.944-1.775c-.102 1.738-.459 3.549-1.145 5.143a22.06 22.06 0 0 1-.801 1.598s-.26.064-.316-.717c.025-2.858.809-5.577 2.346-7.892-.025.623-.048 1.245-.084 1.868zm3.129-17.858a.768.768 0 0 0 .146-.172c.516-.917 1.207-1.728 1.908-2.507.527-.586 1.119-1.138 1.803-1.539.324.162.654.991.777 2.131.303 2.772.439 10.096-3.945 9.407-.209-.033-.57.043-.947.171v-.039c-.06-2.478.075-4.967.258-7.452zm13.08 23.744c-.016-.003-.037-.001-.055-.003-1.689-.398-1.502-1.99-1.289-3.086.492-2.524 3.576-3.883 6.117-3.959 1.284 3.567.296 7.87-4.773 7.048z"/></symbol><symbol id="pattern-postal"><path fill="#F8F7F4" d="M560 205c0 8.25-6.75 15-15 15H15c-8.25 0-15-6.75-15-15V15C0 6.75 6.75 0 15 0h530c8.25 0 15 6.75 15 15v190z"/><path d="M545 0H20.729L0 20.729V205c0 8.25 6.75 15 15 15h530c8.25 0 15-6.75 15-15V15c0-8.25-6.75-15-15-15zM10.246.79A15.107 15.107 0 0 0 .79 10.246L10.246.79z" fill="#F8F7F4"/><path fill="#92CDFF" d="M20.741 0H15c-1.655 0-3.245.283-4.737.784L.784 10.263A14.848 14.848 0 0 0 0 15v5.741L20.741 0z"/><path fill="#FE9E90" d="M0 40.116L40.116 0h-9.693L0 30.423z"/><path fill="#92CDFF" d="M0 59.504L59.504 0h-9.693L0 49.811z"/><path fill="#FE9E90" d="M0 78.891L78.891 0h-9.694L0 69.197z"/><path fill="#92CDFF" d="M0 98.278L98.278 0h-9.694L0 88.584z"/><path fill="#FE9E90" d="M0 117.665L117.665 0h-9.694L0 107.971z"/><path fill="#92CDFF" d="M0 137.052L137.052 0h-9.694L0 127.358z"/><path fill="#FE9E90" d="M0 156.438L156.438 0h-9.693L0 146.745z"/><path fill="#92CDFF" d="M0 175.826L175.826 0h-9.693L0 166.134z"/><path fill="#FE9E90" d="M0 195.213L195.213 0h-9.693L0 185.521z"/><path fill="#92CDFF" d="M204.907 0L0 204.907V205c0 2.746.761 5.317 2.063 7.538L214.601 0h-9.694z"/><path fill="#FE9E90" d="M14.036 219.951L233.987 0h-9.694L6.775 217.519a14.889 14.889 0 0 0 7.261 2.432z"/><path fill="#92CDFF" d="M33.375 220l220-220h-9.695L23.681 220z"/><path fill="#FE9E90" d="M52.762 220l220-220h-9.695L43.068 220z"/><path fill="#92CDFF" d="M72.149 220L292.148 0h-9.694L62.455 220z"/><path fill="#FE9E90" d="M91.536 220L311.535 0h-9.693l-220 220z"/><path fill="#92CDFF" d="M110.923 220l220-220h-9.694l-220 220z"/><path fill="#FE9E90" d="M130.31 220l220-220h-9.695L120.616 220z"/><path fill="#92CDFF" d="M149.697 220L369.696 0h-9.693l-220 220z"/><path fill="#FE9E90" d="M169.084 220L389.083 0h-9.692L159.39 220z"/><path fill="#92CDFF" d="M188.471 220L408.472 0h-9.695l-220 220z"/><path fill="#FE9E90" d="M207.858 220L427.857 0h-9.693L198.165 220z"/><path fill="#92CDFF" d="M227.246 220L447.247 0h-9.695l-220 220z"/><path fill="#FE9E90" d="M246.632 220L466.633 0h-9.695l-220 220z"/><path fill="#92CDFF" d="M266.021 220l220-220h-9.696l-220 220z"/><path fill="#FE9E90" d="M285.406 220l220-220h-9.693l-220 220z"/><path fill="#92CDFF" d="M304.794 220l220-220H515.1l-220 220z"/><path fill="#FE9E90" d="M324.181 220l220-220h-9.695l-220 220z"/><path fill="#92CDFF" d="M343.568 220L557.22 6.349a15.177 15.177 0 0 0-5.137-4.557L333.874 220h9.694z"/><path fill="#FE9E90" d="M362.955 220L560 22.955V15c0-.555-.036-1.102-.096-1.642L353.262 220h9.693z"/><path fill="#92CDFF" d="M382.342 220L560 42.342v-9.694L372.648 220z"/><path fill="#FE9E90" d="M401.729 220L560 61.729v-9.692L392.036 220z"/><path fill="#92CDFF" d="M421.117 220L560 81.118v-9.696L411.423 220z"/><path fill="#FE9E90" d="M440.504 220L560 100.504v-9.695L430.81 220z"/><path fill="#92CDFF" d="M459.892 220L560 119.892v-9.696L450.196 220z"/><path fill="#FE9E90" d="M479.278 220L560 139.278v-9.695L469.583 220z"/><path fill="#92CDFF" d="M498.665 220L560 158.665v-9.693L488.972 220z"/><path fill="#FE9E90" d="M518.052 220L560 178.052v-9.695L508.357 220z"/><path fill="#92CDFF" d="M537.438 220L560 197.438v-9.692L527.746 220z"/><path fill="#FE9E90" d="M559.798 207.335l-12.463 12.463c6.386-1.011 11.452-6.077 12.463-12.463z"/></symbol></svg>